<svg width="33" height="29" viewBox="0 0 33 29" fill="none" xmlns="http://www.w3.org/2000/svg">
<path fill-rule="evenodd" clip-rule="evenodd" d="M0.75 14.5C0.75 13.9778 0.957422 13.4771 1.32663 13.1079C1.69585 12.7387 2.1966 12.5312 2.71875 12.5312H25.5287L17.0749 4.08136C16.7052 3.71168 16.4975 3.21029 16.4975 2.68749C16.4975 2.16468 16.7052 1.66329 17.0749 1.29361C17.4446 0.923931 17.9459 0.716248 18.4687 0.716248C18.9916 0.716248 19.4929 0.923931 19.8626 1.29361L31.6751 13.1061C31.8585 13.289 32.0039 13.5062 32.1032 13.7454C32.2024 13.9846 32.2535 14.241 32.2535 14.5C32.2535 14.7589 32.2024 15.0154 32.1032 15.2545C32.0039 15.4937 31.8585 15.711 31.6751 15.8939L19.8626 27.7064C19.4929 28.076 18.9916 28.2837 18.4687 28.2837C17.9459 28.2837 17.4446 28.076 17.0749 27.7064C16.7052 27.3367 16.4975 26.8353 16.4975 26.3125C16.4975 25.7897 16.7052 25.2883 17.0749 24.9186L25.5287 16.4687H2.71875C2.1966 16.4687 1.69585 16.2613 1.32663 15.8921C0.957422 15.5229 0.75 15.0221 0.75 14.5Z" fill="white"/>
</svg>
