<svg width="24" height="24" viewBox="0 0 24 24" fill="none" xmlns="http://www.w3.org/2000/svg">
<circle cx="12" cy="12" r="11" fill="#0079C2"/>
<path d="M0 12.7031C0 12.2344 0 11.7656 0 11.2969C0.0140625 11.2313 0.0375001 11.1609 0.0421876 11.0953C0.159375 9.40313 0.609375 7.80469 1.42969 6.32812C3.30469 2.9625 6.14062 0.904688 9.93281 0.1875C10.3828 0.103125 10.8422 0.0609375 11.2969 0C11.7656 0 12.2344 0 12.7031 0C12.7641 0.0140625 12.825 0.0328126 12.8859 0.0375001C14.5687 0.15 16.1625 0.595313 17.6344 1.40625C21.0141 3.27187 23.0812 6.10781 23.8125 9.90937C23.9016 10.3687 23.9391 10.8328 24 11.2969C24 11.7656 24 12.2344 24 12.7031C23.9859 12.7687 23.9625 12.8391 23.9578 12.9047C23.8406 14.5969 23.3906 16.1953 22.5703 17.6719C20.6953 21.0375 17.8594 23.0953 14.0672 23.8125C13.6172 23.8969 13.1578 23.9391 12.7031 24C12.2344 24 11.7656 24 11.2969 24C11.2359 23.9859 11.175 23.9672 11.1141 23.9625C9.43125 23.85 7.8375 23.4047 6.36563 22.5938C2.98594 20.7234 0.91875 17.8875 0.1875 14.0906C0.103125 13.6313 0.0609375 13.1625 0 12.7031ZM22.125 11.9906C22.1156 6.40313 17.5875 1.875 12.0047 1.875C6.4125 1.87031 1.86562 6.41719 1.875 12.0094C1.88438 17.5969 6.4125 22.125 11.9953 22.125C17.5875 22.1297 22.1344 17.5828 22.125 11.9906Z" fill="#0079C2"/>
<path d="M10.3922 13.8562C10.4579 13.7578 10.5 13.6687 10.5657 13.6031C12.3375 11.8265 14.1094 10.0594 15.8813 8.2828C16.1719 7.99217 16.4954 7.8328 16.9125 7.95936C17.5313 8.14686 17.775 8.87811 17.3954 9.39842C17.3297 9.48748 17.2547 9.56717 17.175 9.64217C15.1641 11.6531 13.1579 13.664 11.1469 15.6703C10.5985 16.2187 10.1063 16.214 9.55317 15.6609C8.62036 14.7281 7.68755 13.7953 6.75473 12.8625C6.37505 12.4828 6.3188 12.0047 6.59067 11.6109C6.9188 11.1469 7.55161 11.0625 7.98286 11.4562C8.32036 11.7609 8.62973 12.089 8.94848 12.4125C9.41255 12.8765 9.86724 13.3312 10.3922 13.8562Z" fill="white"/>
</svg>
