<svg width="91" height="91" viewBox="0 0 91 91" fill="none" xmlns="http://www.w3.org/2000/svg">
<circle cx="45.5" cy="45.5" r="45.5" fill="#0079C2"/>
<path d="M75.0686 68.2145H16V71.03H75.0686V68.2145Z" fill="white"/>
<path d="M46.9424 37.2795H44.127C43.3503 37.2795 42.7192 37.9105 42.7192 38.6872V62.5976C42.7192 63.3742 42.0813 64.0053 41.3115 64.0053H39.9038V66.8207H44.12C44.8898 66.8207 45.5277 66.1897 45.5277 65.413V41.5026C45.5277 40.726 46.1588 40.0949 46.9355 40.0949H48.3432V37.2795H46.9355H46.9424Z" fill="#3C3E3F"/>
<path d="M39.9104 68.2146H18.8154V51.3428H20.2231L24.4394 55.559V51.3428H25.8471L30.0633 55.559H39.9104V68.2146Z" fill="white"/>
<path d="M38.5028 55.559H30.0635L30.4726 45.1156L30.6044 41.6275L30.7985 36.4057L30.9372 32.9246L31.1383 27.7029L31.277 24.2217L31.4712 19H37.0951L37.2962 24.2217L37.4349 27.7029L37.636 32.9246L37.7747 36.4057L37.9689 41.6275L38.0937 45.1156L38.5028 55.559Z" fill="white"/>
<path d="M37.4348 27.7029H31.1382L31.2769 24.2217H37.2961L37.4348 27.7029Z" fill="#E21B1B"/>
<path d="M37.7745 36.4058H30.7983L30.937 32.9246H37.6358L37.7745 36.4058Z" fill="#E21B1B"/>
<path d="M38.0933 45.1156H30.4722L30.6039 41.6275H37.9684L38.0933 45.1156Z" fill="#E21B1B"/>
<path d="M25.8471 58.3745H21.6309V61.1829H25.8471V58.3745Z" fill="#0079C2"/>
<path d="M25.8471 62.5907H21.6309V65.3992H25.8471V62.5907Z" fill="#0079C2"/>
<path d="M32.8788 58.3745H28.6626V61.1829H32.8788V58.3745Z" fill="#0079C2"/>
<path d="M32.8788 62.5907H28.6626V65.3992H32.8788V62.5907Z" fill="#0079C2"/>
<path d="M70.991 33.0564H67.1978V34.3254H70.991V36.8565H67.1978V38.1256H70.991V40.6497H67.1978V41.9188H70.991V44.4499H67.1978V45.7189H70.991V48.25H67.1978V49.5121H70.991V52.0432H67.1978V53.3122H70.991V55.8434H67.1978V57.1055H70.991V59.6366H67.1978V60.9056H70.991V63.298H67.1978V64.5601H70.991V64.7057V67.0912H67.1978V68.2146H72.26V67.0912V64.7057V64.5601V63.298V60.9056V59.6366V57.1055V55.8434V53.3122V52.0432V49.5121V48.25V45.7189V44.4499V41.9188V40.6497V38.1256V36.8565V34.3254V33.0564H70.991Z" fill="white"/>
<path d="M58.1902 28.8401C52.7535 28.8401 48.3501 30.7263 48.3501 33.0564V68.2146H68.0373V33.0564C68.0373 30.7263 63.6269 28.8401 58.1902 28.8401Z" fill="#919191"/>
<path opacity="0.1" d="M70.9912 33.0564H68.037C68.037 30.7263 63.6266 28.8401 58.1899 28.8401V68.2146H72.2532V33.0564H70.9842H70.9912ZM70.9912 64.6988V67.0912H68.037V64.5601H70.9912V64.6988ZM70.9912 63.291H68.037V60.8986H70.9912V63.291ZM70.9912 59.6365H68.037V57.1054H70.9912V59.6365ZM70.9912 55.8433H68.037V53.3122H70.9912V55.8433ZM70.9912 52.0432H68.037V49.5121H70.9912V52.0432ZM70.9912 48.25H68.037V45.7189H70.9912V48.25ZM70.9912 44.4498H68.037V41.9187H70.9912V44.4498ZM70.9912 40.6497H68.037V38.1186H70.9912V40.6497ZM70.9912 36.8565H68.037V34.3254H70.9912V36.8565Z" fill="white"/>
<path opacity="0.1" d="M34.2866 55.559H38.5028L38.0937 45.1156L37.9689 41.6275L37.7747 36.4057L37.636 32.9246L37.4349 27.7029L37.2962 24.2217L37.0951 19H34.2866V55.559Z" fill="white"/>
<path opacity="0.1" d="M75.069 68.2145H45.5347V71.03H75.069V68.2145Z" fill="white"/>
</svg>
