<svg width="91" height="91" viewBox="0 0 91 91" fill="none" xmlns="http://www.w3.org/2000/svg">
<circle cx="45.5" cy="45.5" r="45.5" fill="#0079C2"/>
<path d="M53.1334 66.0406L52.2668 61.9251L51.8976 60.2018L49.6371 49.4403L49.2679 47.7025L49.2528 47.6443L48.7027 45.0339L47.5875 39.755L47.2409 38.0317H47.3916V35.0796L45.1612 33.6035H43.6315L41.2806 35.0796V38.0317H41.4313L41.0847 39.755L39.9695 45.0339L39.4194 47.6443L39.4043 47.7025L39.0351 49.4403L36.7745 60.2018L36.4053 61.9251L35.5312 66.0406L34.9209 68.9928H36.4807L37.1061 66.0406L37.7014 63.1757L38.0329 61.6124H50.6242L50.9633 63.1757L51.5585 66.0406L52.184 68.9928H53.7437L53.1334 66.0406ZM49.8179 57.7514L45.4174 53.505L48.341 50.6837L49.8179 57.7441V57.7514ZM48.5972 58.6676H40.0674L44.3323 54.552L48.5972 58.6676ZM41.371 45.7465L44.3323 42.8889L47.3012 45.7465L47.5272 46.8663H41.1374L41.3635 45.7465H41.371ZM46.7511 43.1361L45.4174 41.8491L46.3065 40.9984L46.7511 43.1361ZM45.6811 38.0172L45.9373 39.2533L44.3323 40.8021L42.7273 39.2533L42.9835 38.0172H45.6736H45.6811ZM42.3656 40.9984L43.2548 41.8491L41.9286 43.1289L42.3732 40.9911L42.3656 40.9984ZM40.7004 48.9459L40.8209 48.3424H47.8512L47.9718 48.9459L44.3323 52.4579L40.6928 48.9459H40.7004ZM40.3311 50.6837L43.2473 53.505L38.8467 57.7514L40.3311 50.6837Z" fill="white"/>
<path d="M74.066 66.0405H16V68.9927H74.066V66.0405Z" fill="white"/>
<path d="M59.9674 27.5466L26.5038 41.7546L24.2583 40.2785L24.6577 37.7045L58.1138 23.4965L59.9674 27.5466Z" fill="white"/>
<path d="M25.9165 39.5805L26.0446 38.7297L57.3306 25.4451L57.9485 26.7903L26.6625 40.0749L25.9165 39.5805Z" fill="white"/>
<path d="M72.5438 35.0723H71.0142V67.5166H72.5438V35.0723Z" fill="white"/>
<path d="M74.0658 52.0289C74.0658 53.2505 73.041 54.2394 71.7751 54.2394C70.5092 54.2394 69.4844 53.2505 69.4844 52.0289C69.4844 50.8073 70.5092 49.8184 71.7751 49.8184C73.041 49.8184 74.0658 50.8073 74.0658 52.0289Z" fill="white"/>
<path d="M72.0012 30.3605C71.9183 29.8806 71.8128 29.3934 71.6697 28.9062C71.2326 27.1102 70.5997 25.2488 69.7482 23.3874C69.5372 22.9293 69.3187 22.493 69.1077 22.0494C68.2261 20.348 67.2314 18.7846 66.1765 17.3813C65.8826 16.9886 65.5662 16.596 65.2497 16.2252C61.5047 11.7097 57.3152 9.33928 55.3711 10.1609L55.4464 10.6481L56.9761 22.1512L57.2021 23.8454L57.4357 25.6487L58.2119 26.6885L59.1311 27.9028L60.8793 30.2223L61.9192 31.5821L69.8612 42.1399L70.1626 42.5471C71.5566 41.9509 72.4835 39.3987 72.5437 35.8794C72.5739 34.2215 72.4156 32.3383 72.0087 30.3532L72.0012 30.3605ZM60.7286 18.0066C60.0655 18.0066 59.5305 17.4904 59.5305 16.8505C59.5305 16.2106 60.0655 15.7016 60.7286 15.7016C61.3917 15.7016 61.9192 16.2179 61.9192 16.8505C61.9192 17.4831 61.3842 18.0066 60.7286 18.0066ZM61.9342 19.5409C61.9342 18.9083 62.4692 18.392 63.1248 18.392C63.7803 18.392 64.3153 18.9083 64.3153 19.5409C64.3153 20.1735 63.7803 20.697 63.1248 20.697C62.4692 20.697 61.9342 20.1807 61.9342 19.5409ZM63.7276 22.144C63.7276 21.5041 64.2626 20.9951 64.9257 20.9951C65.5888 20.9951 66.1162 21.5114 66.1162 22.144C66.1162 22.7766 65.5812 23.2928 64.9257 23.2928C64.2701 23.2928 63.7276 22.7766 63.7276 22.144ZM65.3476 25.2197C65.3476 24.5871 65.8826 24.0636 66.5457 24.0636C67.2088 24.0636 67.7363 24.5798 67.7363 25.2197C67.7363 25.8596 67.2013 26.3686 66.5457 26.3686C65.8902 26.3686 65.3476 25.8523 65.3476 25.2197ZM66.4629 28.3827C66.4629 27.7501 66.9979 27.2339 67.6609 27.2339C68.324 27.2339 68.8515 27.7501 68.8515 28.3827C68.8515 29.0153 68.3165 29.5388 67.6609 29.5388C67.0054 29.5388 66.4629 29.0226 66.4629 28.3827ZM68.3994 32.8036C67.7438 32.8036 67.2013 32.2874 67.2013 31.6548C67.2013 31.0222 67.7363 30.4987 68.3994 30.4987C69.0625 30.4987 69.59 31.0149 69.59 31.6548C69.59 32.2947 69.055 32.8036 68.3994 32.8036Z" fill="white"/>
<path d="M69.59 31.6548C69.59 32.2874 69.055 32.8037 68.3994 32.8037C67.7439 32.8037 67.2013 32.2874 67.2013 31.6548C67.2013 31.0222 67.7363 30.4987 68.3994 30.4987C69.0625 30.4987 69.5749 31.0004 69.59 31.6257C69.5297 31.2258 69.492 30.8332 69.4091 30.426C69.3413 30.0406 69.2584 29.6479 69.1303 29.1826C69.0324 28.7827 68.8967 28.39 68.7837 27.9974C68.8289 28.121 68.8666 28.2446 68.8666 28.3827C68.8666 29.0226 68.3316 29.5389 67.676 29.5389C67.0205 29.5389 66.4779 29.0226 66.4779 28.3827C66.4779 27.7429 67.0129 27.2339 67.676 27.2339C68.1658 27.2339 68.5803 27.5175 68.7611 27.9247C68.4672 26.9285 68.1131 25.9469 67.6986 24.9798C67.7212 25.0598 67.7514 25.1398 67.7514 25.227C67.7514 25.8669 67.2164 26.3759 66.5608 26.3759C65.9053 26.3759 65.3627 25.8596 65.3627 25.227C65.3627 24.5944 65.8977 24.0709 66.5608 24.0709C66.9979 24.0709 67.3596 24.3108 67.5705 24.6453C67.5329 24.5508 67.5027 24.4563 67.4575 24.369C67.2691 23.9545 67.0732 23.5619 66.8924 23.1983C66.6286 22.6893 66.3348 22.1949 66.0409 21.7005C66.1012 21.8386 66.1313 21.9913 66.1313 22.144C66.1313 22.7839 65.5963 23.2929 64.9408 23.2929C64.2852 23.2929 63.7427 22.7766 63.7427 22.144C63.7427 21.5114 64.2777 20.9951 64.9408 20.9951C65.4306 20.9951 65.8525 21.286 66.0409 21.6932C65.5134 20.8061 64.9483 19.9335 64.3304 19.1119C64.0818 18.7847 63.818 18.4502 63.5166 18.1012C61.5273 15.7089 59.7038 14.3274 58.4229 13.6148L59.9073 24.8635L62.8083 28.7245L63.7954 30.0188L69.6276 37.7772C69.7633 37.1301 69.8688 36.2939 69.8838 35.2468C69.9064 34.1198 69.7859 32.8982 69.5975 31.6621L69.59 31.6548ZM60.7361 18.0067C60.0731 18.0067 59.5381 17.4904 59.5381 16.8505C59.5381 16.2106 60.0731 15.7017 60.7361 15.7017C61.3992 15.7017 61.9267 16.2179 61.9267 16.8505C61.9267 17.4831 61.3917 18.0067 60.7361 18.0067ZM61.9418 19.5409C61.9418 18.9083 62.4768 18.392 63.1323 18.392C63.7879 18.392 64.3229 18.9083 64.3229 19.5409C64.3229 20.1735 63.7879 20.697 63.1323 20.697C62.4768 20.697 61.9418 20.1808 61.9418 19.5409Z" fill="white"/>
<path d="M32.8111 67.5167H20.5815L22.1112 55.7154H31.2815L32.8111 67.5167Z" fill="white"/>
<path d="M30.1358 61.6124C30.1358 62.6304 29.2843 63.452 28.2294 63.452C27.1744 63.452 26.3154 62.6304 26.3154 61.6124C26.3154 60.5944 27.1669 59.7655 28.2294 59.7655C29.2918 59.7655 30.1358 60.5944 30.1358 61.6124Z" fill="white"/>
<path d="M28.2221 62.7176C27.6269 62.7176 27.122 62.2668 27.0843 61.6851L25.5547 39.5659C25.5095 38.9551 25.9917 38.4316 26.6247 38.388C27.2501 38.3443 27.8002 38.8097 27.8454 39.4205L29.375 61.5397C29.4127 62.1505 28.938 62.674 28.305 62.7176C28.2824 62.7176 28.2523 62.7176 28.2297 62.7176H28.2221Z" fill="white"/>
<path opacity="0.1" d="M53.1333 66.0406L52.2668 61.9251L51.8975 60.2018L49.637 49.4403L49.2678 47.7025L49.2527 47.6443L48.7026 45.0339L47.5874 39.755L47.2408 38.0317H47.3915V35.0796L45.1611 33.6035H44.4V38.0244H45.681L45.9372 39.2606L44.3925 40.7512V42.9471L47.2935 45.7465L47.5196 46.8663H44.385V48.3424H47.8361L47.9566 48.9459L44.3774 52.3997V54.6102L48.5821 58.6676H44.3774V61.6197H50.609L50.9481 63.183L51.5434 66.0479H44.3774V69H74.0509V66.0479H53.1182L53.1333 66.0406ZM45.4173 41.8564L46.3064 41.0057L46.751 43.1434L45.4173 41.8564ZM45.4173 53.505L48.3409 50.6837L49.8178 57.7514L45.4173 53.505Z" fill="white"/>
<path opacity="0.1" d="M26.7002 67.5167H32.8112L31.2816 55.7154H26.7002V67.5167Z" fill="white"/>
</svg>
