<svg width="91" height="91" viewBox="0 0 91 91" fill="none" xmlns="http://www.w3.org/2000/svg">
<circle cx="45.5" cy="45.5" r="45.5" fill="#0079C2"/>
<path d="M61.9851 16H49.4452C46.6818 16 42.5242 17.1297 40.1641 18.5043L33.7555 22.2725L32.1681 20.4081L24.7348 25.9934L26.1375 27.6524C25.0624 29.1375 24.3652 30.9466 24.3652 32.5187V66.7253C24.3652 69.3244 26.6246 71.4415 29.3795 71.4415H61.9851C64.74 71.4415 66.9994 69.3244 66.9994 66.7253V20.7242C66.9994 18.1251 64.74 16.0079 61.9851 16.0079V16ZM42.1715 21.4983C43.9269 20.4792 47.4126 19.5392 49.4452 19.5392H57.8443L55.333 24.2554H37.4847L42.1715 21.4904V21.4983Z" fill="white"/>
<path d="M53.6284 54.1013C53.746 53.7932 53.788 53.4851 53.788 53.1612V42.5437C53.788 42.2119 53.746 41.9038 53.6284 41.6036L60.4821 34.6201C60.9693 34.0987 60.9693 33.3008 60.4821 32.7794C59.9698 32.2817 59.1802 32.2817 58.6763 32.7794L51.8226 39.7629C51.5202 39.6444 51.2262 39.597 50.8987 39.597H40.4753C40.1477 39.597 39.8453 39.6444 39.543 39.7629L32.6892 32.7794C32.2021 32.2817 31.3958 32.2817 30.8834 32.7794C30.3963 33.3008 30.3963 34.0987 30.8834 34.6201L37.7372 41.6036C37.6196 41.9117 37.5776 42.2198 37.5776 42.5437V53.1612C37.5776 53.493 37.6196 53.8011 37.7372 54.1013L30.8834 61.0848C30.3963 61.6062 30.3963 62.404 30.8834 62.9254C31.1354 63.1861 31.463 63.3046 31.7905 63.3046C32.1181 63.3046 32.4373 63.1861 32.6977 62.9254L39.5514 55.9419C39.8538 56.0604 40.1561 56.1078 40.4837 56.1078H50.907C51.2346 56.1078 51.537 56.0604 51.831 55.9419L58.6847 62.9254C58.9367 63.1861 59.2642 63.3046 59.5918 63.3046C59.9194 63.3046 60.2385 63.1861 60.4989 62.9254C60.9861 62.404 60.9861 61.6062 60.4989 61.0848L53.6452 54.1013H53.6284ZM41.6932 53.7458H40.4669C40.1393 53.7458 39.8873 53.4851 39.8873 53.1612V42.5437C39.8873 42.2119 40.1393 41.9591 40.4669 41.9591H50.8903C51.2178 41.9591 51.4698 42.2198 51.4698 42.5437V53.1612C51.4698 53.493 51.2178 53.7458 50.8903 53.7458H41.6932Z" fill="#0079C2"/>
<path d="M31.6178 17.8194L22 25.0382L23.535 26.8474L33.1528 19.6286L31.6178 17.8194Z" fill="white"/>
<path opacity="0.1" d="M61.9859 16H49.4459C48.3457 16 47.027 16.1817 45.6831 16.4898V20.1475C47.0354 19.7841 48.4212 19.5392 49.4459 19.5392H57.8451L55.3338 24.2554H45.6831V71.4337H61.9859C64.7408 71.4337 67.0002 69.3165 67.0002 66.7174V20.7162C67.0002 18.1172 64.7408 16 61.9859 16Z" fill="white"/>
</svg>
