<svg width="29" height="29" viewBox="0 0 29 29" fill="none" xmlns="http://www.w3.org/2000/svg">
<circle cx="14.5" cy="14.5" r="14.5" fill="#0079C2"/>
<path d="M14.003 11.4063C12.0155 11.4063 10.4124 13.0095 10.4124 14.997C10.4124 16.9845 12.0155 18.5876 14.003 18.5876C15.9905 18.5876 17.5937 16.9845 17.5937 14.997C17.5937 13.0095 15.9905 11.4063 14.003 11.4063ZM14.003 17.3313C12.7187 17.3313 11.6687 16.2845 11.6687 14.997C11.6687 13.7095 12.7155 12.6626 14.003 12.6626C15.2905 12.6626 16.3374 13.7095 16.3374 14.997C16.3374 16.2845 15.2874 17.3313 14.003 17.3313ZM18.578 11.2595C18.578 11.7251 18.203 12.097 17.7405 12.097C17.2749 12.097 16.903 11.722 16.903 11.2595C16.903 10.797 17.278 10.422 17.7405 10.422C18.203 10.422 18.578 10.797 18.578 11.2595ZM20.9562 12.1095C20.903 10.9876 20.6468 9.99385 19.8249 9.1751C19.0062 8.35635 18.0124 8.1001 16.8905 8.04385C15.7343 7.97822 12.2687 7.97822 11.1124 8.04385C9.99365 8.09697 8.9999 8.35322 8.17803 9.17197C7.35615 9.99072 7.10303 10.9845 7.04678 12.1063C6.98115 13.2626 6.98115 16.7282 7.04678 17.8845C7.0999 19.0063 7.35615 20.0001 8.17803 20.8188C8.9999 21.6376 9.99053 21.8938 11.1124 21.9501C12.2687 22.0157 15.7343 22.0157 16.8905 21.9501C18.0124 21.897 19.0062 21.6407 19.8249 20.8188C20.6437 20.0001 20.8999 19.0063 20.9562 17.8845C21.0218 16.7282 21.0218 13.2657 20.9562 12.1095ZM19.4624 19.1251C19.2187 19.7376 18.7468 20.2095 18.1312 20.4563C17.2093 20.822 15.0218 20.7376 14.003 20.7376C12.9843 20.7376 10.7937 20.8188 9.8749 20.4563C9.2624 20.2126 8.79053 19.7407 8.54365 19.1251C8.17803 18.2032 8.2624 16.0157 8.2624 14.997C8.2624 13.9782 8.18115 11.7876 8.54365 10.8688C8.7874 10.2563 9.25928 9.78447 9.8749 9.5376C10.7968 9.17197 12.9843 9.25635 14.003 9.25635C15.0218 9.25635 17.2124 9.1751 18.1312 9.5376C18.7437 9.78135 19.2155 10.2532 19.4624 10.8688C19.828 11.7907 19.7437 13.9782 19.7437 14.997C19.7437 16.0157 19.828 18.2063 19.4624 19.1251Z" fill="white"/>
</svg>
