<svg width="29" height="29" viewBox="0 0 29 29" fill="none" xmlns="http://www.w3.org/2000/svg">
<circle cx="14.5" cy="14.5" r="14.5" fill="#0079C2"/>
<path d="M10.1337 21.0002H7.23125V11.6533H10.1337V21.0002ZM8.68094 10.3783C7.75281 10.3783 7 9.60955 7 8.68143C7 8.23561 7.1771 7.80806 7.49234 7.49282C7.80757 7.17759 8.23513 7.00049 8.68094 7.00049C9.12675 7.00049 9.5543 7.17759 9.86954 7.49282C10.1848 7.80806 10.3619 8.23561 10.3619 8.68143C10.3619 9.60955 9.60875 10.3783 8.68094 10.3783ZM20.9969 21.0002H18.1006V16.4502C18.1006 15.3658 18.0787 13.9752 16.5916 13.9752C15.0825 13.9752 14.8513 15.1533 14.8513 16.3721V21.0002H11.9519V11.6533H14.7356V12.9283H14.7762C15.1637 12.1939 16.1103 11.4189 17.5225 11.4189C20.46 11.4189 21 13.3533 21 15.8658V21.0002H20.9969Z" fill="white"/>
</svg>
