<svg width="158" height="78" viewBox="0 0 158 78" fill="none" xmlns="http://www.w3.org/2000/svg">
<g id="gazprom-neft-logo-rus 1" clip-path="url(#clip0_3313_2)">
<g id="Group">
<path id="Vector" d="M48.8014 24.3661H58.8289V27.6591H54.0588V50.796H48.8014V24.3661ZM64.7739 40.874L65.6749 27.6591H65.9767L66.8777 40.874H64.7739ZM58.9517 50.796H64.0993L64.5862 43.7768H67.0652L67.5544 50.796H72.6996L69.9579 24.3661H61.6935L58.9517 50.796ZM80.2291 41.5457V46.5281C80.2291 47.1998 80.7464 47.3947 81.0481 47.3947C81.5438 47.3947 81.8888 46.9831 81.8888 46.5281V40.376C81.8888 39.5526 81.7378 38.6428 79.7763 38.6428H77.6423V35.74H79.8625C81.3499 35.74 81.8888 35.3933 81.8888 33.7685V28.5257C81.8888 28.0707 81.5438 27.6591 81.0479 27.6591C80.7464 27.6591 80.2291 27.8323 80.2291 28.5257V32.8367H74.9693V29.089C74.9693 27.2475 75.1849 24.3661 78.8706 24.3661H83.2249C86.9109 24.3661 87.148 27.2475 87.148 29.089V33.3132C87.148 36.1946 85.1434 36.9745 83.5699 36.9094V37.1695C87.1048 37.0829 87.148 39.8122 87.148 40.744V46.0734C87.148 47.9364 86.9109 50.796 83.2249 50.796H78.8706C75.1849 50.796 74.9693 47.9361 74.9693 46.0731V41.5457H80.2291ZM90.5971 24.3661H102.776V50.796H97.5163V27.6591H95.8566V50.796H90.5971V24.3661ZM111.484 38.9027V27.6593H112.174C112.734 27.6593 113.144 28.1356 113.144 28.9807V37.5811C113.144 38.4262 112.734 38.9024 112.174 38.9024L111.484 38.9027ZM106.225 50.796H111.484V41.8055H114.502C118.166 41.8055 118.403 38.9459 118.403 37.0826V29.089C118.403 27.2475 118.166 24.3661 114.502 24.3661H106.225V50.796ZM128.771 46.5281C128.771 46.9831 128.426 47.3947 127.931 47.3947C127.629 47.3947 127.112 47.1998 127.112 46.5281V28.5257C127.112 27.8323 127.629 27.6591 127.931 27.6591C128.426 27.6591 128.771 28.0707 128.771 28.5257V46.5281ZM121.852 46.0734C121.852 47.9364 122.089 50.796 125.754 50.796H130.129C133.794 50.796 134.031 47.9361 134.031 46.0731V29.089C134.031 27.2475 133.794 24.3661 130.129 24.3661H125.754C122.089 24.3661 121.852 27.2475 121.852 29.089V46.0734ZM151.146 24.3661H158V50.796H152.741V34.2232H152.547L149.831 50.796H145.628L142.933 34.2232H142.739V50.796H137.48V24.3661H144.313L147.74 42.9537L151.146 24.3661ZM41.9855 14.6176C40.3755 7.53355 36.3402 1.77109 35.7841 0.839355C34.9046 2.16073 31.6865 7.252 30.0504 12.8844C28.2634 19.1885 28.0005 24.7777 28.6172 30.2586C29.2293 35.7613 31.542 41.4156 31.542 41.4156C32.7708 44.3619 34.6115 47.5462 35.8101 49.1062C37.5667 46.8099 41.6041 39.964 42.8629 31.0386C43.5635 26.0559 43.5937 21.7017 41.9855 14.6176ZM35.7841 47.3298C34.9931 45.835 33.7643 42.9968 33.6479 38.5775C33.6177 34.3316 35.3141 30.6702 35.8101 29.9122C36.2519 30.6705 37.7132 33.8548 37.8879 38.2093C38.0064 42.4554 36.601 45.813 35.7841 47.3298ZM41.5179 26.6407C41.4575 29.3489 41.1363 32.2085 40.7267 33.92C40.8733 30.9737 40.5221 26.8359 39.8494 23.5864C39.1769 20.3584 37.2735 14.9426 35.7541 12.4511C34.3508 14.8343 32.6219 19.5135 31.7167 23.5647C30.807 27.6157 30.7812 32.5335 30.7812 34.0066C30.5396 32.7716 29.9362 28.3307 30.1064 23.8897C30.2488 20.2286 31.1023 16.4374 31.5701 14.7042C33.3548 8.92006 35.3745 5.21554 35.7539 4.63049C36.1334 5.21554 38.6768 9.78665 39.9959 14.5742C41.3089 19.362 41.5739 23.9543 41.5179 26.6407Z" fill="white"/>
<path id="Vector_2" d="M38.5149 50.7526H26.2736V59.0065C26.2846 59.0065 26.2931 58.9848 26.3038 58.9848C29.1879 56.082 33.8656 56.082 36.7518 58.9848C39.6359 61.8661 39.6359 66.5671 36.7518 69.4701C36.7388 69.4916 36.7258 69.4916 36.713 69.5133C36.6979 69.5133 36.6828 69.535 36.6698 69.5567C33.7922 72.4164 30.033 73.8461 26.2736 73.8461C22.4973 73.8461 18.7207 72.4164 15.841 69.5133C10.7625 64.4223 10.1611 56.515 14.0324 50.7526C14.5639 49.9598 15.1695 49.2199 15.841 48.5429C18.7207 45.6401 22.4973 44.2101 26.2736 44.2101V24.3661C11.7627 24.3661 0 36.1728 0 50.7526C0 65.3323 11.7627 77.1607 26.2736 77.1607C33.8396 77.1607 40.6554 73.9327 45.4492 68.7985V50.7526H38.5149ZM158 58.5176H48.8011V77.1607H158V58.5176ZM148.557 71.5325H149.943V68.7184H148.557V71.5325ZM148.557 66.6079H150.654L152.058 67.3116L152.404 68.015L152.75 69.422V70.1254C152.714 75.1656 149.487 73.3205 146.097 73.6432V62.0352H148.557V66.6079ZM130.347 62.0352V64.1456H128.597V73.6432H125.808V64.1456H124.058V62.0352H130.347ZM104.808 70.4773H105.154L105.847 70.1254V65.2009H104.808V70.4773ZM102.001 65.2011H100.943V70.1254L101.654 70.4773H102.001V65.2011ZM104.808 62.0352V63.0904H106.558L107.597 63.7938L108.308 64.4974L108.654 65.9045V69.7738L108.308 71.1809L107.597 71.8843L106.558 72.5877H104.808V73.643H102.001V72.5877H100.251L99.1934 71.8843L98.5007 71.1809L98.1544 69.7738V65.9045L98.5005 64.4974L99.1934 63.7938L100.251 63.0904H102.001V62.0352H104.808ZM82.0509 62.0352V64.1456H79.951V66.6079H82.0509V68.7184H79.951V71.5325H82.401V73.643H77.151V62.0352H82.0509ZM56.8511 66.6079H58.2512V62.0352H60.7011V73.6432H58.2512V68.7184H56.8511V73.6432H54.0511V62.0352H56.8511V66.6079Z" fill="white"/>
</g>
</g>
<defs>
<clipPath id="clip0_3313_2">
<rect width="158" height="78" fill="white"/>
</clipPath>
</defs>
</svg>
