<svg width="29" height="29" viewBox="0 0 29 29" fill="none" xmlns="http://www.w3.org/2000/svg">
<circle cx="14.5" cy="14.5" r="14.5" fill="#0079C2"/>
<path d="M20.3553 11.741C20.3655 11.8831 20.3655 12.0253 20.3655 12.1674C20.3655 16.5024 17.066 21.4973 11.0355 21.4973C9.17766 21.4973 7.45178 20.9593 6 20.0253C6.26397 20.0557 6.51775 20.0659 6.79188 20.0659C8.32484 20.0659 9.73603 19.5481 10.8629 18.6649C9.42131 18.6344 8.21319 17.6903 7.79694 16.3908C8 16.4212 8.20303 16.4415 8.41625 16.4415C8.71066 16.4415 9.00509 16.4009 9.27919 16.3298C7.77666 16.0253 6.64972 14.7055 6.64972 13.1116V13.071C7.08625 13.3146 7.59391 13.4669 8.13194 13.4872C7.24869 12.8983 6.67003 11.8933 6.67003 10.7562C6.67003 10.1471 6.83244 9.58872 7.11672 9.10141C8.73094 11.0913 11.1573 12.3907 13.8781 12.5329C13.8274 12.2892 13.7969 12.0354 13.7969 11.7816C13.7969 9.9745 15.2588 8.50244 17.0761 8.50244C18.0202 8.50244 18.873 8.89838 19.472 9.53797C20.2131 9.39585 20.9238 9.12172 21.5533 8.7461C21.3096 9.50753 20.7918 10.1471 20.1116 10.5532C20.7715 10.4822 21.4111 10.2994 21.9999 10.0456C21.5533 10.6953 20.9949 11.274 20.3553 11.741Z" fill="white"/>
</svg>
